<?xml version="1.0" encoding="UTF-8" standalone="no"?>
<!-- Created with Inkscape (http://www.inkscape.org/) -->

<svg
   width="11.804914mm"
   height="17.630989mm"
   viewBox="0 0 11.804914 17.630989"
   version="1.1"
   id="svg21064"
   inkscape:version="1.1.2 (0a00cf5339, 2022-02-04)"
   sodipodi:docname="vp-icon.svg"
   xmlns:inkscape="http://www.inkscape.org/namespaces/inkscape"
   xmlns:sodipodi="http://sodipodi.sourceforge.net/DTD/sodipodi-0.dtd"
   xmlns="http://www.w3.org/2000/svg"
   xmlns:svg="http://www.w3.org/2000/svg">
  <sodipodi:namedview
     id="namedview21066"
     pagecolor="#ffffff"
     bordercolor="#666666"
     borderopacity="1.0"
     inkscape:pageshadow="2"
     inkscape:pageopacity="0.0"
     inkscape:pagecheckerboard="0"
     inkscape:document-units="mm"
     showgrid="false"
     fit-margin-top="0"
     fit-margin-left="0"
     fit-margin-right="0"
     fit-margin-bottom="0"
     inkscape:zoom="4.359103"
     inkscape:cx="-2.9822649"
     inkscape:cy="41.637007"
     inkscape:window-width="1920"
     inkscape:window-height="1018"
     inkscape:window-x="1080"
     inkscape:window-y="151"
     inkscape:window-maximized="0"
     inkscape:current-layer="layer1" />
  <defs
     id="defs21061" />
  <g
     inkscape:label="Layer 1"
     inkscape:groupmode="layer"
     id="layer1"
     transform="translate(-97.790029,-116.5082)">
    <g
       id="g20313"
       transform="matrix(0.705672,0,0,0.705672,41.413704,38.941339)"
       inkscape:export-filename="/home/jandro/Pictures/logos/VP-app2.png"
       inkscape:export-xdpi="189.4736"
       inkscape:export-ydpi="189.4736">
      <g
         id="g20263"
         transform="matrix(0.35277777,0,0,-0.35277777,96.618881,126.54687)"
         style="fill:#ffffff;fill-opacity:1">
        <path
           d="m 0,0 c 0,-2.063 -0.265,-4.107 -0.787,-6.082 -3.129,-1.841 -6.62,-3.244 -10.302,-4.209 0.665,3.424 0.993,6.953 0.978,10.524 3.526,0.962 6.795,2.288 9.744,3.949 C -0.123,2.808 0,1.406 0,0"
           style="fill:#ffffff;fill-opacity:1;fill-rule:nonzero;stroke:none"
           id="path20261" />
      </g>
      <g
         id="g20267"
         transform="matrix(0.35277777,0,0,-0.35277777,90.348111,134.64736)"
         style="fill:#ffffff;fill-opacity:1">
        <path
           d="M 0,0 C -1.602,-0.412 -3.248,-0.656 -4.911,-0.727 V 9.035 C -1.895,9.092 1.079,9.4 3.97,9.955 3.021,6.345 1.689,3.004 0,0"
           style="fill:#ffffff;fill-opacity:1;fill-rule:nonzero;stroke:none"
           id="path20265" />
      </g>
      <g
         id="g20271"
         transform="matrix(0.35277777,0,0,-0.35277777,84.760541,131.13542)"
         style="fill:#ffffff;fill-opacity:1">
        <path
           d="m 0,0 c 2.891,-0.555 5.863,-0.863 8.881,-0.92 v -9.762 C 7.217,-10.611 5.57,-10.367 3.969,-9.955 2.279,-6.951 0.948,-3.61 0,0"
           style="fill:#ffffff;fill-opacity:1;fill-rule:nonzero;stroke:none"
           id="path20269" />
      </g>
      <g
         id="g20275"
         transform="matrix(0.35277777,0,0,-0.35277777,80.167551,128.6925)"
         style="fill:#ffffff;fill-opacity:1">
        <path
           d="m 0,0 c -0.521,1.975 -0.786,4.018 -0.786,6.082 0,1.406 0.123,2.808 0.367,4.182 C 2.53,8.603 5.799,7.277 9.325,6.315 9.31,2.744 9.638,-0.785 10.303,-4.209 6.621,-3.244 3.13,-1.841 0,0"
           style="fill:#ffffff;fill-opacity:1;fill-rule:nonzero;stroke:none"
           id="path20273" />
      </g>
      <g
         id="g20279"
         transform="matrix(0.35277777,0,0,-0.35277777,85.519471,126.16481)"
         style="fill:#ffffff;fill-opacity:1">
        <path
           d="m 0,0 c -1.276,0.196 -2.535,0.441 -3.769,0.733 0.038,1.068 0.107,2.134 0.207,3.194 z"
           style="fill:#ffffff;fill-opacity:1;fill-rule:nonzero;stroke:none"
           id="path20277" />
      </g>
      <g
         id="g20283"
         transform="matrix(0.35277777,0,0,-0.35277777,84.179331,126.64473)"
         style="fill:#ffffff;fill-opacity:1">
        <path
           d="m 0,0 c 1.927,-0.437 3.911,-0.766 5.921,-0.979 l 4.607,-5.079 v -5.539 C 7.353,-11.534 4.187,-11.18 1.125,-10.532 0.396,-7.117 0.018,-3.583 0,0"
           style="fill:#ffffff;fill-opacity:1;fill-rule:nonzero;stroke:none"
           id="path20281" />
      </g>
      <g
         id="g20287"
         transform="matrix(0.35277777,0,0,-0.35277777,88.615591,130.73579)"
         style="fill:#ffffff;fill-opacity:1">
        <path
           d="m 0,0 v 5.539 l 4.607,5.079 c 2.009,0.213 3.994,0.541 5.921,0.979 C 10.511,8.014 10.133,4.479 9.403,1.064 6.342,0.417 3.176,0.062 0,0"
           style="fill:#ffffff;fill-opacity:1;fill-rule:nonzero;stroke:none"
           id="path20285" />
      </g>
      <g
         id="g20291"
         transform="matrix(0.35277777,0,0,-0.35277777,92.246021,124.77956)"
         style="fill:#ffffff;fill-opacity:1">
        <path
           d="M 0,0 C 0.101,-1.06 0.17,-2.126 0.206,-3.193 -1.026,-3.485 -2.286,-3.73 -3.562,-3.927 Z"
           style="fill:#ffffff;fill-opacity:1;fill-rule:nonzero;stroke:none"
           id="path20289" />
      </g>
      <g
         id="g20295"
         transform="matrix(0.35277777,0,0,-0.35277777,96.322971,124.33446)"
         style="fill:#ffffff;fill-opacity:1">
        <path
           d="m 0,0 c -2.804,-1.644 -5.932,-2.962 -9.322,-3.928 -0.068,1.573 -0.202,3.142 -0.403,4.686 l 3.658,4.03 c 0.851,0.94 1.619,1.938 2.297,2.988 C -2.052,5.44 -0.764,2.784 0,0"
           style="fill:#ffffff;fill-opacity:1;fill-rule:nonzero;stroke:none"
           id="path20293" />
      </g>
      <g
         id="g20299"
         transform="matrix(0.35277777,0,0,-0.35277777,91.860191,118.50329)">
        <path
           d="m 0,0 c -0.559,-1.321 -1.358,-2.508 -2.377,-3.526 -1.019,-1.019 -2.205,-1.818 -3.525,-2.377 -1.369,-0.578 -2.822,-0.872 -4.319,-0.872 -1.497,0 -2.95,0.294 -4.318,0.872 -1.321,0.559 -2.507,1.358 -3.525,2.377 -1.019,1.018 -1.819,2.205 -2.377,3.526 -0.58,1.368 -0.872,2.82 -0.872,4.317 0,1.497 0.292,2.951 0.872,4.319 0.558,1.321 1.358,2.508 2.377,3.526 1.018,1.018 2.204,1.817 3.525,2.376 1.368,0.579 2.821,0.873 4.318,0.873 1.497,0 2.95,-0.294 4.319,-0.873 1.32,-0.559 2.506,-1.358 3.525,-2.376 C -1.358,11.144 -0.559,9.957 0,8.636 0.578,7.268 0.872,5.814 0.872,4.317 0.872,2.82 0.578,1.368 0,0 m 4.397,18.388 c -3.768,3.741 -8.815,5.851 -14.212,5.942 -0.134,0.002 -0.271,0.003 -0.406,0.003 -0.134,0 -0.271,-10e-4 -0.405,-0.003 -5.397,-0.091 -10.444,-2.201 -14.213,-5.942 -7.893,-7.837 -8.187,-20.467 -0.67,-28.754 l 15.288,-16.852 15.288,16.852 c 7.518,8.287 7.224,20.917 -0.67,28.754"
           style="fill:#569ddb;fill-opacity:1;fill-rule:nonzero;stroke:none"
           id="path20297" />
      </g>
      <g
         id="g20303"
         transform="matrix(0.35277777,0,0,-0.35277777,82.326581,122.64533)"
         style="fill:#ffffff;fill-opacity:1">
        <path
           d="m 0,0 3.656,-4.03 c -0.2,-1.544 -0.334,-3.114 -0.401,-4.686 -3.391,0.966 -6.519,2.283 -9.322,3.928 0.762,2.783 2.051,5.439 3.769,7.776 C -1.619,1.937 -0.853,0.939 0,0"
           style="fill:#ffffff;fill-opacity:1;fill-rule:nonzero;stroke:none"
           id="path20301" />
      </g>
      <g
         id="g20307"
         transform="matrix(0.35277777,0,0,-0.35277777,80.505821,129.70155)"
         style="fill:#ffffff;fill-opacity:1">
        <path
           d="m 0,0 c 2.812,-1.437 5.887,-2.585 9.176,-3.422 0.217,-0.056 0.434,-0.109 0.653,-0.161 0.82,-3.405 1.962,-6.597 3.407,-9.525 C 7.253,-10.73 2.436,-5.958 0,0"
           style="fill:#ffffff;fill-opacity:1;fill-rule:nonzero;stroke:none"
           id="path20305" />
      </g>
      <g
         id="g20311"
         transform="matrix(0.35277777,0,0,-0.35277777,91.333421,134.3259)"
         style="fill:#ffffff;fill-opacity:1">
        <path
           d="m 0,0 c 1.446,2.929 2.588,6.12 3.408,9.525 0.218,0.052 0.436,0.106 0.654,0.162 3.289,0.836 6.364,1.984 9.174,3.421 C 10.802,7.15 5.983,2.378 0,0"
           style="fill:#ffffff;fill-opacity:1;fill-rule:nonzero;stroke:none"
           id="path20309" />
      </g>
    </g>
  </g>
</svg>
