<?xml version="1.0" encoding="utf-8"?>
<!-- Generator: Adobe Illustrator 17.0.0, SVG Export Plug-In . SVG Version: 6.00 Build 0)  -->
<!DOCTYPE svg PUBLIC "-//W3C//DTD SVG 1.1//EN" "http://www.w3.org/Graphics/SVG/1.1/DTD/svg11.dtd">
<svg version="1.1" id="Layer_1" xmlns="http://www.w3.org/2000/svg" xmlns:xlink="http://www.w3.org/1999/xlink" x="0px" y="0px"
	 width="300px" height="80px" viewBox="0 0 300 80" enable-background="new 0 0 300 80" xml:space="preserve">
<g>
	<rect x="7.738" y="55.416" fill-rule="evenodd" clip-rule="evenodd" fill="#302D2E" width="43.685" height="11.219"/>
	<rect x="7.618" y="14.487" fill-rule="evenodd" clip-rule="evenodd" fill="#302D2E" width="43.685" height="11.219"/>
	<rect x="7.618" y="34.492" fill-rule="evenodd" clip-rule="evenodd" fill="#302D2E" width="43.685" height="11.219"/>
	<rect x="39.339" y="55.416" fill-rule="evenodd" clip-rule="evenodd" fill="#DD8326" width="12.084" height="11.219"/>
</g>
<rect x="68.7" y="6.699" fill-rule="evenodd" clip-rule="evenodd" fill="#302D2E" width="0.716" height="66.601"/>
<g>
	<path fill="#A3A2A2" d="M86.805,49.817h2.828v13.131h6.37v2.368h-9.198V49.817z"/>
	<path fill="#A3A2A2" d="M104.882,49.817v15.499h-2.828V49.817H104.882z"/>
	<path fill="#A3A2A2" d="M125.074,67.8c-2.162-0.598-4.093-1.241-6.048-2.001c-0.345-0.114-0.667-0.206-1.012-0.229
		c-3.587-0.184-6.784-2.828-6.784-7.864c0-4.783,2.966-8.141,7.405-8.141c4.484,0,7.151,3.449,7.151,7.818
		c0,3.748-1.725,6.255-4.001,7.151v0.093c1.334,0.367,2.829,0.689,4.093,0.942L125.074,67.8z M122.797,57.521
		c0-2.967-1.449-5.68-4.254-5.68c-2.828,0-4.346,2.69-4.323,5.794c-0.023,3.104,1.563,5.657,4.277,5.657
		C121.233,63.293,122.797,60.764,122.797,57.521z"/>
	<path fill="#A3A2A2" d="M134.943,49.817v9.037c0,3.036,1.265,4.438,3.173,4.438c2.046,0,3.265-1.402,3.265-4.438v-9.037h2.829
		v8.854c0,4.783-2.46,6.898-6.186,6.898c-3.587,0-5.91-2.001-5.91-6.875v-8.877H134.943z"/>
	<path fill="#A3A2A2" d="M154.194,49.817v15.499h-2.828V49.817H154.194z"/>
	<path fill="#A3A2A2" d="M161.348,50.024c1.241-0.207,2.828-0.321,4.507-0.321c2.897,0,4.897,0.598,6.323,1.793
		c1.495,1.219,2.415,3.059,2.415,5.703c0,2.76-0.943,4.829-2.415,6.163c-1.54,1.402-4.001,2.115-7.013,2.115
		c-1.656,0-2.897-0.092-3.817-0.207V50.024z M164.176,63.155c0.391,0.068,0.989,0.068,1.563,0.068c3.68,0.023,5.864-2,5.864-5.933
		c0.022-3.426-1.955-5.381-5.496-5.381c-0.896,0-1.541,0.069-1.932,0.161V63.155z"/>
	<path fill="#A3A2A2" d="M202.055,64.604c-0.988,0.368-2.92,0.874-4.99,0.874c-2.621,0-4.599-0.667-6.07-2.069
		c-1.38-1.312-2.185-3.357-2.161-5.703c0-4.897,3.495-8.048,8.623-8.048c1.908,0,3.403,0.391,4.116,0.735l-0.621,2.276
		c-0.851-0.368-1.886-0.667-3.519-0.667c-3.312,0-5.634,1.955-5.634,5.565c0,3.518,2.162,5.61,5.381,5.61
		c1.012,0,1.771-0.138,2.139-0.322v-3.862h-2.736v-2.23h5.473V64.604z"/>
	<path fill="#A3A2A2" d="M211.97,60.925l-1.334,4.392h-2.921l4.968-15.499h3.609l5.036,15.499h-3.035l-1.402-4.392H211.97z
		 M216.407,58.786l-1.219-3.817c-0.299-0.943-0.552-2.001-0.781-2.897h-0.046c-0.23,0.896-0.46,1.978-0.736,2.897l-1.195,3.817
		H216.407z"/>
	<path fill="#A3A2A2" d="M227.403,49.817h2.828v13.131h6.37v2.368h-9.198V49.817z"/>
	<path fill="#A3A2A2" d="M245.848,60.925l-1.334,4.392h-2.921l4.968-15.499h3.609l5.036,15.499h-3.035l-1.402-4.392H245.848z
		 M250.285,58.786l-1.219-3.817c-0.299-0.943-0.552-2.001-0.781-2.897h-0.046c-0.23,0.896-0.46,1.978-0.736,2.897l-1.195,3.817
		H250.285z"/>
	<path fill="#A3A2A2" d="M269.122,65.316l-1.679-3.081c-0.667-1.196-1.104-2.023-1.54-2.921h-0.069
		c-0.368,0.897-0.782,1.725-1.402,2.921l-1.541,3.081h-3.242l4.599-7.841l-4.415-7.658h3.242l1.679,3.196
		c0.506,0.966,0.874,1.725,1.288,2.599h0.046c0.414-0.966,0.736-1.655,1.219-2.599l1.655-3.196h3.243l-4.53,7.565l4.714,7.934
		H269.122z"/>
	<path fill="#A3A2A2" d="M282.119,65.316v-6.462l-4.898-9.037h3.22l1.862,3.979c0.528,1.149,0.92,2.023,1.334,3.081h0.046
		c0.391-0.988,0.827-1.954,1.356-3.081l1.862-3.979h3.196l-5.15,8.969v6.53H282.119z"/>
</g>
<rect x="88.375" y="13.547" fill="none" width="1.625" height="0.94"/>
<g>
	<g>
		<path fill="#302D2E" d="M103.381,32.542H92.204v8.713h12.498v4.444H86.791v-29.66h17.25v4.444H92.204v7.657h11.178V32.542z"/>
		<path fill="#302D2E" d="M109.451,45.699v-29.66h6.161l7.657,12.718c1.98,3.3,3.697,6.733,5.061,9.945h0.088
			c-0.352-3.96-0.484-7.789-0.484-12.322V16.039h5.017v29.66h-5.589l-7.745-13.026c-1.893-3.256-3.873-6.909-5.325-10.253
			l-0.132,0.044c0.22,3.829,0.264,7.745,0.264,12.63v10.605H109.451z"/>
		<path fill="#302D2E" d="M138.491,16.435c2.376-0.396,5.413-0.616,8.625-0.616c5.545,0,9.374,1.144,12.102,3.433
			c2.86,2.333,4.62,5.853,4.62,10.914c0,5.281-1.804,9.241-4.62,11.794c-2.948,2.685-7.657,4.049-13.422,4.049
			c-3.168,0-5.545-0.177-7.305-0.396V16.435z M143.903,41.563c0.748,0.133,1.893,0.133,2.993,0.133
			c7.041,0.044,11.221-3.829,11.221-11.354c0.044-6.557-3.74-10.297-10.517-10.297c-1.716,0-2.949,0.132-3.697,0.308V41.563z"/>
		<path fill="#DC8327" d="M178.397,16.435c1.937-0.352,4.621-0.616,8.273-0.616c3.961,0,6.865,0.836,8.758,2.42
			c1.76,1.452,2.904,3.785,2.904,6.557c0,2.816-0.88,5.148-2.553,6.733c-2.156,2.156-5.545,3.168-9.373,3.168
			c-1.013,0-1.937-0.044-2.641-0.176v11.178h-5.369V16.435z M183.767,30.253c0.66,0.176,1.54,0.22,2.641,0.22
			c4.049,0,6.513-1.98,6.513-5.457c0-3.3-2.288-5.061-6.029-5.061c-1.496,0-2.552,0.132-3.124,0.264V30.253z"/>
		<path fill="#DC8327" d="M229.09,30.561c0,9.945-6.029,15.623-14.214,15.623c-8.361,0-13.643-6.381-13.643-15.095
			c0-9.109,5.721-15.534,14.082-15.534C223.985,15.555,229.09,22.112,229.09,30.561z M206.954,31.001
			c0,6.029,3.037,10.826,8.229,10.826c5.236,0,8.186-4.841,8.186-11.046c0-5.589-2.772-10.87-8.186-10.87
			C209.814,19.912,206.954,24.884,206.954,31.001z"/>
		<path fill="#DC8327" d="M238.018,16.039v29.66h-5.413v-29.66H238.018z"/>
		<path fill="#DC8327" d="M243.076,45.699v-29.66h6.161l7.657,12.718c1.98,3.3,3.696,6.733,5.061,9.945h0.088
			c-0.352-3.96-0.483-7.789-0.483-12.322V16.039h5.017v29.66h-5.589l-7.745-13.026c-1.893-3.256-3.873-6.909-5.325-10.253
			l-0.132,0.044c0.22,3.829,0.264,7.745,0.264,12.63v10.605H243.076z"/>
		<path fill="#DC8327" d="M278.498,20.572h-8.449v-4.533h22.398v4.533h-8.537v25.127h-5.412V20.572z"/>
	</g>
</g>
</svg>
